G04 Layer: TopLayer*
G04 EasyEDA v6.4.17, 2021-03-04T16:16:43+05:30*
G04 deca96cb4bbb4a47937ce8430cf14737,2bb57043524a4b129a37d6aa7432c0d1,10*
G04 Gerber Generator version 0.2*
G04 Scale: 100 percent, Rotated: No, Reflected: No *
G04 Dimensions in millimeters *
G04 leading zeros omitted , absolute positions ,4 integer and 5 decimal *
%FSLAX45Y45*%
%MOMM*%

%ADD11C,0.4000*%
%ADD12R,1.7000X1.7000*%
%ADD13C,1.7000*%
%ADD14C,1.5240*%
%ADD15C,1.8000*%
%ADD16R,1.8000X1.8000*%
%ADD17C,1.5748*%
%ADD18R,1.5748X1.5748*%
%ADD19C,1.6000*%

%LPD*%
D11*
X2603500Y1257300D02*
G01*
X3365500Y1257300D01*
X3378200Y1270000D01*
X2603500Y1511300D02*
G01*
X3365500Y1511300D01*
X3378200Y1524000D01*
X2603500Y1765300D02*
G01*
X3365500Y1765300D01*
X3378200Y1778000D01*
X2603500Y2019300D02*
G01*
X3365500Y2019300D01*
X3378200Y2032000D01*
X1841500Y2273300D02*
G01*
X-508000Y2273300D01*
X-533400Y2298700D01*
X1841500Y2019300D02*
G01*
X-508000Y2019300D01*
X-533400Y2044700D01*
X1841500Y1765300D02*
G01*
X-508000Y1765300D01*
X-533400Y1790700D01*
X1841500Y1511300D02*
G01*
X-508000Y1511300D01*
X-533400Y1536700D01*
X1875281Y5276850D02*
G01*
X2129281Y5276850D01*
X3479800Y5080000D02*
G01*
X3733800Y5080000D01*
X3733800Y5080000D02*
G01*
X3987800Y5080000D01*
X3987800Y5080000D02*
G01*
X4241800Y5080000D01*
X3479800Y5080000D02*
G01*
X3225800Y5080000D01*
X3225800Y5080000D02*
G01*
X2186431Y5080000D01*
X2129281Y5022850D01*
X1875281Y5022850D02*
G01*
X2129281Y5022850D01*
X3479800Y4826000D02*
G01*
X3733800Y4826000D01*
X3733800Y4826000D02*
G01*
X3987800Y4826000D01*
X3987800Y4826000D02*
G01*
X4241800Y4826000D01*
X3479800Y4826000D02*
G01*
X3225800Y4826000D01*
X3225800Y4826000D02*
G01*
X2185670Y4826000D01*
X2129281Y4769612D01*
X1875281Y4769612D02*
G01*
X2129281Y4769612D01*
X3429000Y4394200D02*
G01*
X3683000Y4394200D01*
X3683000Y4394200D02*
G01*
X3937000Y4394200D01*
X3937000Y4394200D02*
G01*
X4191000Y4394200D01*
X3429000Y4394200D02*
G01*
X3175000Y4394200D01*
X3175000Y4394200D02*
G01*
X2250693Y4394200D01*
X2129281Y4515612D01*
X3429000Y4140200D02*
G01*
X3683000Y4140200D01*
X3683000Y4140200D02*
G01*
X3937000Y4140200D01*
X3937000Y4140200D02*
G01*
X4191000Y4140200D01*
X3429000Y4140200D02*
G01*
X3175000Y4140200D01*
X3175000Y4140200D02*
G01*
X2250693Y4140200D01*
X2129281Y4261612D01*
X1875281Y3753612D02*
G01*
X2129281Y3753612D01*
X1930400Y-2743200D02*
G01*
X1282700Y-3390900D01*
X959612Y-3390900D01*
X1930400Y-2489200D02*
G01*
X1353312Y-2489200D01*
X959612Y-2882900D01*
X1930400Y-2235200D02*
G01*
X1175512Y-2235200D01*
X959612Y-2451100D01*
X1930400Y-1981200D02*
G01*
X972312Y-1981200D01*
X959612Y-1993900D01*
X1930400Y-1727200D02*
G01*
X1150112Y-1727200D01*
X959612Y-1536700D01*
X1930400Y-1473200D02*
G01*
X1353312Y-1473200D01*
X959612Y-1079500D01*
X1930400Y-1219200D02*
G01*
X1295400Y-584200D01*
X946912Y-584200D01*
X-4635500Y-2298700D02*
G01*
X-4889500Y-2298700D01*
X-4889500Y-2298700D02*
G01*
X-5143500Y-2298700D01*
X-5143500Y-2298700D02*
G01*
X-5397500Y-2298700D01*
X-4635500Y-2298700D02*
G01*
X-4381500Y-2298700D01*
X-4381500Y-2298700D02*
G01*
X-4027931Y-2298700D01*
X-4015231Y-2286000D01*
X-3860800Y-2286000D02*
G01*
X-4015231Y-2286000D01*
X2603500Y2273300D02*
G01*
X3235197Y2273300D01*
X3247897Y2286000D01*
X3378200Y2286000D02*
G01*
X3247897Y2286000D01*
X2603500Y495300D02*
G01*
X3365500Y495300D01*
X3378200Y508000D01*
X3365500Y-190500D02*
G01*
X3619500Y-190500D01*
X3619500Y-190500D02*
G01*
X3873500Y-190500D01*
X3873500Y-190500D02*
G01*
X4127500Y-190500D01*
X-4635500Y-2044700D02*
G01*
X-4889500Y-2044700D01*
X-4635500Y-2044700D02*
G01*
X-4381500Y-2044700D01*
X-4381500Y-2044700D02*
G01*
X-4027931Y-2044700D01*
X-4015231Y-2032000D01*
X1875281Y3499612D02*
G01*
X2129281Y3499612D01*
X3365500Y-190500D02*
G01*
X3111500Y-190500D01*
X3111500Y-190500D02*
G01*
X310387Y-190500D01*
X-83312Y-584200D01*
X-83312Y-584200D02*
G01*
X-934212Y266700D01*
X-1066800Y266700D01*
X-3938015Y-2032000D02*
G01*
X-4015231Y-2032000D01*
X-3938015Y-2032000D02*
G01*
X-3860800Y-2032000D01*
X-3706368Y-2032000D02*
G01*
X-3596131Y-1922018D01*
X-142494Y-1922018D01*
X-70612Y-1993900D01*
X-3860800Y-2032000D02*
G01*
X-3706368Y-2032000D01*
X-4889500Y-2044700D02*
G01*
X-5143500Y-2044700D01*
X-5143500Y-2044700D02*
G01*
X-5397500Y-2044700D01*
X-533400Y520700D02*
G01*
X-1066800Y520700D01*
X3111500Y63500D02*
G01*
X3365500Y63500D01*
X3365500Y63500D02*
G01*
X3619500Y63500D01*
X3619500Y63500D02*
G01*
X3873500Y63500D01*
X3873500Y63500D02*
G01*
X4127500Y63500D01*
X-533400Y520700D02*
G01*
X-403097Y520700D01*
X3111500Y63500D02*
G01*
X2273300Y63500D01*
X1841500Y495300D01*
X1841500Y495300D02*
G01*
X-377697Y495300D01*
X-403097Y520700D01*
X1875281Y4007612D02*
G01*
X2129281Y4007612D01*
X-533400Y774700D02*
G01*
X-1066800Y774700D01*
X1841500Y749300D02*
G01*
X1181100Y749300D01*
X1168400Y762000D01*
X1168400Y762000D02*
G01*
X914400Y762000D01*
X914400Y762000D02*
G01*
X660400Y762000D01*
X660400Y762000D02*
G01*
X406400Y762000D01*
X406400Y762000D02*
G01*
X152400Y762000D01*
X152400Y762000D02*
G01*
X-520700Y762000D01*
X-533400Y774700D01*
X-1612900Y762000D02*
G01*
X-1079500Y762000D01*
X-1066800Y774700D01*
X1841500Y1003300D02*
G01*
X1299971Y1003300D01*
X1287271Y1016000D01*
X1227836Y1016000D02*
G01*
X1287271Y1016000D01*
X1227836Y1016000D02*
G01*
X1168400Y1016000D01*
X1168400Y1016000D02*
G01*
X914400Y1016000D01*
X914400Y1016000D02*
G01*
X660400Y1016000D01*
X660400Y1016000D02*
G01*
X406400Y1016000D01*
X406400Y1016000D02*
G01*
X152400Y1016000D01*
X152400Y1016000D02*
G01*
X139700Y1028700D01*
X-533400Y1028700D01*
X-533400Y1028700D02*
G01*
X-941578Y1028700D01*
X-941578Y1028700D01*
X-1066800Y1028700D02*
G01*
X-941578Y1028700D01*
X-1612900Y1016000D02*
G01*
X-1204721Y1016000D01*
X-1192021Y1028700D01*
X-1066800Y1028700D02*
G01*
X-1192021Y1028700D01*
D12*
G01*
X-1066800Y1028700D03*
D13*
G01*
X-1066800Y774700D03*
G01*
X-1066800Y520700D03*
G01*
X-1066800Y266700D03*
G36*
X-1498600Y1339850D02*
G01*
X-1498600Y1200150D01*
X-1727200Y1200150D01*
X-1727200Y1339850D01*
G37*
G36*
X-1498600Y1085850D02*
G01*
X-1498600Y946150D01*
X-1727200Y946150D01*
X-1727200Y1085850D01*
G37*
G36*
X-1498600Y831850D02*
G01*
X-1498600Y692150D01*
X-1727200Y692150D01*
X-1727200Y831850D01*
G37*
G36*
X-1498600Y565150D02*
G01*
X-1498600Y425450D01*
X-1727200Y425450D01*
X-1727200Y565150D01*
G37*
G36*
X-1498600Y323850D02*
G01*
X-1498600Y184150D01*
X-1727200Y184150D01*
X-1727200Y323850D01*
G37*
G36*
X-1498600Y69850D02*
G01*
X-1498600Y-69850D01*
X-1727200Y-69850D01*
X-1727200Y69850D01*
G37*
G36*
X-1498600Y-184150D02*
G01*
X-1498600Y-323850D01*
X-1727200Y-323850D01*
X-1727200Y-184150D01*
G37*
G36*
X-1498600Y-438150D02*
G01*
X-1498600Y-577850D01*
X-1727200Y-577850D01*
X-1727200Y-438150D01*
G37*
G36*
X-1498600Y-692150D02*
G01*
X-1498600Y-831850D01*
X-1727200Y-831850D01*
X-1727200Y-692150D01*
G37*
G36*
X-1498600Y-946150D02*
G01*
X-1498600Y-1085850D01*
X-1727200Y-1085850D01*
X-1727200Y-946150D01*
G37*
G36*
X-1498600Y-1200150D02*
G01*
X-1498600Y-1339850D01*
X-1727200Y-1339850D01*
X-1727200Y-1200150D01*
G37*
G36*
X-1498600Y-1454150D02*
G01*
X-1498600Y-1593850D01*
X-1727200Y-1593850D01*
X-1727200Y-1454150D01*
G37*
G36*
X-1498600Y-1708150D02*
G01*
X-1498600Y-1847850D01*
X-1727200Y-1847850D01*
X-1727200Y-1708150D01*
G37*
G36*
X-1498600Y-1962150D02*
G01*
X-1498600Y-2101850D01*
X-1727200Y-2101850D01*
X-1727200Y-1962150D01*
G37*
G36*
X-1498600Y-2216150D02*
G01*
X-1498600Y-2355850D01*
X-1727200Y-2355850D01*
X-1727200Y-2216150D01*
G37*
G36*
X-3975100Y-2355850D02*
G01*
X-3975100Y-2216150D01*
X-3746500Y-2216150D01*
X-3746500Y-2355850D01*
G37*
G36*
X-3975100Y-2101850D02*
G01*
X-3975100Y-1962150D01*
X-3746500Y-1962150D01*
X-3746500Y-2101850D01*
G37*
G36*
X-3975100Y-1847850D02*
G01*
X-3975100Y-1708150D01*
X-3746500Y-1708150D01*
X-3746500Y-1847850D01*
G37*
G36*
X-3975100Y-1593850D02*
G01*
X-3975100Y-1454150D01*
X-3746500Y-1454150D01*
X-3746500Y-1593850D01*
G37*
G36*
X-3975100Y-1339850D02*
G01*
X-3975100Y-1200150D01*
X-3746500Y-1200150D01*
X-3746500Y-1339850D01*
G37*
G36*
X-3975100Y-1085850D02*
G01*
X-3975100Y-946150D01*
X-3746500Y-946150D01*
X-3746500Y-1085850D01*
G37*
G36*
X-3975100Y-831850D02*
G01*
X-3975100Y-692150D01*
X-3746500Y-692150D01*
X-3746500Y-831850D01*
G37*
G36*
X-3975100Y-577850D02*
G01*
X-3975100Y-438150D01*
X-3746500Y-438150D01*
X-3746500Y-577850D01*
G37*
G36*
X-3975100Y-323850D02*
G01*
X-3975100Y-184150D01*
X-3746500Y-184150D01*
X-3746500Y-323850D01*
G37*
G36*
X-3975100Y-69850D02*
G01*
X-3975100Y69850D01*
X-3746500Y69850D01*
X-3746500Y-69850D01*
G37*
G36*
X-3975100Y184150D02*
G01*
X-3975100Y323850D01*
X-3746500Y323850D01*
X-3746500Y184150D01*
G37*
G36*
X-3975100Y412750D02*
G01*
X-3975100Y552450D01*
X-3746500Y552450D01*
X-3746500Y412750D01*
G37*
G36*
X-3975100Y692150D02*
G01*
X-3975100Y831850D01*
X-3746500Y831850D01*
X-3746500Y692150D01*
G37*
G36*
X-3975100Y946150D02*
G01*
X-3975100Y1085850D01*
X-3746500Y1085850D01*
X-3746500Y946150D01*
G37*
G36*
X-3975100Y1200150D02*
G01*
X-3975100Y1339850D01*
X-3746500Y1339850D01*
X-3746500Y1200150D01*
G37*
D14*
G01*
X-83210Y-584200D03*
G01*
X946810Y-584200D03*
G01*
X-70510Y-1079500D03*
G01*
X959510Y-1079500D03*
G01*
X-70510Y-1536700D03*
G01*
X959510Y-1536700D03*
G01*
X-70510Y-1993900D03*
G01*
X959510Y-1993900D03*
G01*
X-70510Y-2451100D03*
G01*
X959510Y-2451100D03*
G01*
X-70510Y-2882900D03*
G01*
X959510Y-2882900D03*
G01*
X-70510Y-3390900D03*
G01*
X959510Y-3390900D03*
D15*
G01*
X1930400Y-965200D03*
G01*
X2184400Y-965200D03*
G01*
X1930400Y-1219200D03*
G01*
X2184400Y-1219200D03*
G01*
X1930400Y-1473200D03*
G01*
X2184400Y-1473200D03*
G01*
X1930400Y-1727200D03*
G01*
X2184400Y-1727200D03*
G01*
X1930400Y-1981200D03*
G01*
X2184400Y-1981200D03*
G01*
X1930400Y-2235200D03*
G01*
X2184400Y-2235200D03*
G01*
X1930400Y-2489200D03*
G01*
X2184400Y-2489200D03*
G01*
X1930400Y-2743200D03*
D16*
G01*
X2184400Y-2743200D03*
D14*
G01*
X2129281Y3499612D03*
G01*
X2129281Y3753612D03*
G01*
X2129281Y4007612D03*
G01*
X2129281Y4261612D03*
G01*
X2129281Y4515612D03*
G01*
X2129281Y4769612D03*
G01*
X2129281Y5022850D03*
G01*
X2129281Y5276850D03*
G01*
X1875281Y3499612D03*
G01*
X1875281Y3753612D03*
G01*
X1875281Y4007612D03*
G01*
X1875281Y4261612D03*
G01*
X1875281Y4515612D03*
G01*
X1875281Y4769612D03*
G01*
X1875281Y5022850D03*
G01*
X1875281Y5276850D03*
D17*
G01*
X4191000Y4394200D03*
G01*
X4191000Y4140200D03*
G01*
X3937000Y4394200D03*
G01*
X3937000Y4140200D03*
G01*
X3683000Y4394200D03*
G01*
X3683000Y4140200D03*
G01*
X3429000Y4394200D03*
G01*
X3429000Y4140200D03*
G01*
X3175000Y4394200D03*
G36*
X3096259Y4218939D02*
G01*
X3253740Y4218939D01*
X3253740Y4061460D01*
X3096259Y4061460D01*
G37*
G01*
X4241800Y5080000D03*
G01*
X4241800Y4826000D03*
G01*
X3987800Y5080000D03*
G01*
X3987800Y4826000D03*
G01*
X3733800Y5080000D03*
G01*
X3733800Y4826000D03*
G01*
X3479800Y5080000D03*
G01*
X3479800Y4826000D03*
G01*
X3225800Y5080000D03*
G36*
X3147059Y4904739D02*
G01*
X3304540Y4904739D01*
X3304540Y4747260D01*
X3147059Y4747260D01*
G37*
G01*
X-5397500Y-2298700D03*
G01*
X-5397500Y-2044700D03*
G01*
X-5143500Y-2298700D03*
G01*
X-5143500Y-2044700D03*
G01*
X-4889500Y-2298700D03*
G01*
X-4889500Y-2044700D03*
G01*
X-4635500Y-2298700D03*
G01*
X-4635500Y-2044700D03*
G01*
X-4381500Y-2298700D03*
D18*
G01*
X-4381500Y-2044700D03*
D17*
G01*
X152400Y762000D03*
G01*
X152400Y1016000D03*
G01*
X406400Y762000D03*
G01*
X406400Y1016000D03*
G01*
X660400Y762000D03*
G01*
X660400Y1016000D03*
G01*
X914400Y762000D03*
G01*
X914400Y1016000D03*
G01*
X1168400Y762000D03*
D18*
G01*
X1168400Y1016000D03*
D17*
G01*
X4127500Y63500D03*
G01*
X4127500Y-190500D03*
G01*
X3873500Y63500D03*
G01*
X3873500Y-190500D03*
G01*
X3619500Y63500D03*
G01*
X3619500Y-190500D03*
G01*
X3365500Y63500D03*
G01*
X3365500Y-190500D03*
G01*
X3111500Y63500D03*
G36*
X3032759Y-111760D02*
G01*
X3190240Y-111760D01*
X3190240Y-269239D01*
X3032759Y-269239D01*
G37*
D16*
G01*
X-533400Y520700D03*
D15*
G01*
X-533400Y774700D03*
G01*
X-533400Y1028700D03*
G01*
X-533400Y1282700D03*
G01*
X-533400Y1536700D03*
G01*
X-533400Y1790700D03*
G01*
X-533400Y2044700D03*
G01*
X-533400Y2298700D03*
D16*
G01*
X3378200Y2286000D03*
D15*
G01*
X3378200Y2032000D03*
G01*
X3378200Y1778000D03*
G01*
X3378200Y1524000D03*
G01*
X3378200Y1270000D03*
G01*
X3378200Y1016000D03*
G01*
X3378200Y762000D03*
G01*
X3378200Y508000D03*
D19*
G01*
X2603500Y495300D03*
G01*
X2603500Y749300D03*
G01*
X2603500Y1003300D03*
G01*
X2603500Y1257300D03*
G01*
X2603500Y1511300D03*
G01*
X2603500Y1765300D03*
G01*
X2603500Y2019300D03*
G01*
X2603500Y2273300D03*
G01*
X1841500Y2273300D03*
G01*
X1841500Y2019300D03*
G01*
X1841500Y1765300D03*
G01*
X1841500Y1511300D03*
G01*
X1841500Y1257300D03*
G01*
X1841500Y1003300D03*
G01*
X1841500Y749300D03*
G01*
X1841500Y495300D03*
M02*
