M48
METRIC,LZ,000.000
;FILE_FORMAT=3:3
;TYPE=PLATED
;Layer: Drill PTH
;EasyEDA v6.4.17, 2021-03-04T16:16:43+05:30
;deca96cb4bbb4a47937ce8430cf14737,2bb57043524a4b129a37d6aa7432c0d1,10
;Gerber Generator version 0.2
;Holesize 1 = 0.762 mm
T01C0.762
;Holesize 2 = 0.889 mm
T02C0.889
;Holesize 3 = 0.915 mm
T03C0.915
;Holesize 4 = 1.000 mm
T04C1.000
;Holesize 5 = 1.101 mm
T05C1.101
;Holesize 6 = 1.200 mm
T06C1.200
%
G05
G90
T01
X-016129Y012700
X-016129Y010160
X-016129Y007620
X-016129Y004953
X-016129Y002540
X-016129Y000000
X-016129Y-002540
X-016129Y-005080
X-016129Y-007620
X-016129Y-010160
X-016129Y-012700
X-016129Y-015240
X-016129Y-017780
X-016129Y-020320
X-016129Y-022860
X-038608Y-022860
X-038608Y-020320
X-038608Y-017780
X-038608Y-015240
X-038608Y-012700
X-038608Y-010160
X-038608Y-007620
X-038608Y-005080
X-038608Y-002540
X-038608Y000000
X-038608Y002540
X-038608Y004826
X-038608Y007620
X-038608Y010160
X-038608Y012700
T02
X041910Y043942
X041910Y041402
X039370Y043942
X039370Y041402
X036830Y043942
X036830Y041402
X034290Y043942
X034290Y041402
X031750Y043942
X031750Y041402
X042418Y050800
X042418Y048260
X039878Y050800
X039878Y048260
X037338Y050800
X037338Y048260
X034798Y050800
X034798Y048260
X032258Y050800
X032258Y048260
X-053975Y-022987
X-053975Y-020447
X-051435Y-022987
X-051435Y-020447
X-048895Y-022987
X-048895Y-020447
X-046355Y-022987
X-046355Y-020447
X-043815Y-022987
X-043815Y-020447
X001524Y007620
X001524Y010160
X004064Y007620
X004064Y010160
X006604Y007620
X006604Y010160
X009144Y007620
X009144Y010160
X011684Y007620
X011684Y010160
X041275Y000635
X041275Y-001905
X038735Y000635
X038735Y-001905
X036195Y000635
X036195Y-001905
X033655Y000635
X033655Y-001905
X031115Y000635
X031115Y-001905
T03
X021293Y034996
X021293Y037536
X021293Y040076
X021293Y042616
X021293Y045156
X021293Y047696
X021293Y050229
X021293Y052769
X018753Y034996
X018753Y037536
X018753Y040076
X018753Y042616
X018753Y045156
X018753Y047696
X018753Y050229
X018753Y052769
T04
X-000832Y-005842
X009468Y-005842
X-000705Y-010795
X009595Y-010795
X-000705Y-015367
X009595Y-015367
X-000705Y-019939
X009595Y-019939
X-000705Y-024511
X009595Y-024511
X-000705Y-028829
X009595Y-028829
X-000705Y-033909
X009595Y-033909
X026035Y004953
X026035Y007493
X026035Y010033
X026035Y012573
X026035Y015113
X026035Y017653
X026035Y020193
X026035Y022733
X018415Y022733
X018415Y020193
X018415Y017653
X018415Y015113
X018415Y012573
X018415Y010033
X018415Y007493
X018415Y004953
T05
X-010668Y010287
X-010668Y007747
X-010668Y005207
X-010668Y002667
X019304Y-009652
X021844Y-009652
X019304Y-012192
X021844Y-012192
X019304Y-014732
X021844Y-014732
X019304Y-017272
X021844Y-017272
X019304Y-019812
X021844Y-019812
X019304Y-022352
X021844Y-022352
X019304Y-024892
X021844Y-024892
X019304Y-027432
X021844Y-027432
T06
X-005334Y005207
X-005334Y007747
X-005334Y010287
X-005334Y012827
X-005334Y015367
X-005334Y017907
X-005334Y020447
X-005334Y022987
X033782Y022860
X033782Y020320
X033782Y017780
X033782Y015240
X033782Y012700
X033782Y010160
X033782Y007620
X033782Y005080
M30
