<?xml version="1.0"?>
<svg xmlns="http://www.w3.org/2000/svg" xmlns:xlink="http://www.w3.org/1999/xlink" xmlns:svgjs="http://svgjs.com/svgjs" version="1.1" width="512" height="512" x="0" y="0" viewBox="0 0 510 510" style="enable-background:new 0 0 512 512" xml:space="preserve" class=""><g><g xmlns="http://www.w3.org/2000/svg"><path d="m510 297.707v-85.414l-67.57-11.262c-4.036-14.042-9.645-27.563-16.75-40.382l39.831-55.763-60.397-60.397-55.763 39.831c-12.82-7.106-26.34-12.715-40.382-16.75l-11.262-67.57h-85.414l-11.262 67.57c-14.042 4.036-27.563 9.645-40.382 16.75l-55.763-39.831-60.397 60.397 39.831 55.763c-7.106 12.82-12.715 26.34-16.75 40.382l-67.57 11.262v85.414l67.57 11.262c4.036 14.042 9.645 27.563 16.75 40.382l-39.831 55.763 60.397 60.397 55.763-39.831c12.82 7.106 26.34 12.715 40.382 16.751l11.262 67.569h85.414l11.261-67.57c14.042-4.036 27.563-9.644 40.382-16.751l55.763 39.831 60.397-60.397-39.831-55.763c7.106-12.82 12.715-26.34 16.75-40.382zm-83.673 104.164-24.457 24.456-51.164-36.546c-5.014 2.696-25.057 18.263-58.318 25.967l-9.764 2.261-10.331 61.991h-34.586l-10.332-61.991c-5.693-1.715-30.481-4.768-59.579-22.922l-8.503-5.306-51.164 36.546-24.457-24.456 36.546-51.164c-2.742-5.098-18.267-25.074-25.967-58.318l-2.261-9.764-61.99-10.332v-34.586l61.991-10.332c1.714-5.693 4.768-30.481 22.922-59.579l5.306-8.503-36.546-51.164 24.457-24.457 51.164 36.546c5.098-2.742 25.074-18.267 58.318-25.967l9.764-2.261 10.331-61.99h34.586l10.331 61.991c5.69 1.713 30.483 4.768 59.579 22.922l8.503 5.306 51.164-36.546 24.457 24.457-36.546 51.164c2.741 5.098 18.267 25.074 25.967 58.318l2.261 9.764 61.991 10.331v34.586l-61.991 10.332c-1.714 5.693-4.768 30.481-22.922 59.579l-5.306 8.503z" fill="#e4ce2c" data-original="#000000" style="" class=""/><path d="m255 127.5c-70.304 0-127.5 57.196-127.5 127.5s57.196 127.5 127.5 127.5 127.5-57.196 127.5-127.5-57.196-127.5-127.5-127.5zm-43.774 214.603c4.706-19.815 22.54-34.603 43.774-34.603s39.068 14.788 43.774 34.603c-27.479 13.866-60.057 13.873-87.548 0zm21.274-87.103c0-12.407 10.093-22.5 22.5-22.5s22.5 10.093 22.5 22.5-10.093 22.5-22.5 22.5-22.5-10.093-22.5-22.5zm91.705 68.609c-5.995-14.307-16.308-26.363-29.292-34.56 7.838-9.175 12.587-21.064 12.587-34.049 0-28.949-23.551-52.5-52.5-52.5s-52.5 23.551-52.5 52.5c0 12.984 4.748 24.874 12.587 34.049-12.984 8.197-23.297 20.253-29.292 34.56-17.48-17.631-28.295-41.88-28.295-68.609 0-53.762 43.738-97.5 97.5-97.5s97.5 43.738 97.5 97.5c0 26.729-10.815 50.978-28.295 68.609z" fill="#e4ce2c" data-original="#000000" style="" class=""/></g></g></svg>
